:FULLY-SPECIFIED
:FORCE-ALL-JOINTS-BE-3DOF
:DEGREES
883
root 3.85195 16.5305 30.5312 -10.8246 23.6768 359.35
lfemur -15.8095 19.9983 -19.0116
ltibia 40.4913 0 0
lfoot -12.9326 0.0690648 0
ltoes -1.37978 0 0
rfemur -80.7132 -24.4467 36.5168
rtibia 101.126 0 0
rfoot 19.264 26.205 0
rtoes -8.14353 0 0
lowerback 15.0059 -4.01209 -6.64789
upperback 4.97444 -6.28636 -2.38034
thorax -2.64296 -3.11384 2.26165
lowerneck -7.71871 -3.24517 1.71638
upperneck 4.65939 -4.84264 4.94114
head 2.93726 -2.18998 1.06474
lclavicle -3.12092e-14 -4.77083e-15 0
lhumerus -33.0312 -40.5423 88.3441
lradius 60.5977 0 0
lwrist 19.6497 0 0
lhand 25.8347 11.8689 0
lfingers 7.12502 0 0
lthumb 49.9264 33.1302 0
rclavicle -3.12092e-14 -4.77083e-15 0
rhumerus -49.2556 -29.6742 -46.9493
rradius 72.2992 0 0
rwrist -23.3678 0 0
rhand -47.7649 -54.4874 0
rfingers 7.12502 0 0
rthumb -20.4424 -803.431 0
884
root 3.85028 16.5294 30.5396 -10.7592 23.6573 359.359
lfemur -15.8736 20.0293 -18.9923
ltibia 40.5523 0 0
lfoot -12.9472 0.0579491 0
ltoes -1.30045 0 0
rfemur -80.3502 -24.3615 36.2615
rtibia 100.953 0 0
rfoot 19.1656 25.8817 0
rtoes -7.83487 0 0
lowerback 14.9316 -3.99813 -6.62611
upperback 4.94429 -6.26268 -2.38017
thorax -2.63633 -3.10205 2.24405
lowerneck -7.71367 -3.2674 1.69278
upperneck 4.65759 -4.86997 4.94179
head 2.93752 -2.20408 1.06772
lclavicle -3.10184e-14 -4.59276e-15 0
lhumerus -33.1536 -40.5208 88.4867
lradius 60.5979 0 0
lwrist 19.6071 0 0
lhand 25.8611 11.9019 0
lfingers 7.12502 0 0
lthumb 49.9504 33.1492 0
rclavicle -3.10184e-14 -4.59276e-15 0
rhumerus -49.2307 -29.3792 -47.2716
rradius 72.5768 0 0
rwrist -23.277 0 0
rhand -47.3678 -54.1622 0
rfingers 7.12502 0 0
rthumb -20.0607 -803.086 0
885
root 3.84548 16.5263 30.5636 -10.5715 23.6015 359.386
lfemur -16.0577 20.1182 -18.937
ltibia 40.7272 0 0
lfoot -12.9891 0.02606 0
ltoes -1.07286 0 0
rfemur -79.309 -24.1172 35.5291
rtibia 100.457 0 0
rfoot 18.8833 24.9543 0
rtoes -6.94938 0 0
lowerback 14.7183 -3.95807 -6.56364
upperback 4.85779 -6.19476 -2.37967
thorax -2.61729 -3.06824 2.19355
lowerneck -7.6992 -3.33116 1.62507
upperneck 4.65242 -4.94839 4.94367
head 2.93827 -2.24454 1.07628
lclavicle -3.04712e-14 -4.0819e-15 0
lhumerus -33.5046 -40.4591 88.8958
lradius 60.5986 0 0
lwrist 19.4849 0 0
lhand 25.9368 11.9967 0
lfingers 7.12502 0 0
lthumb 50.0191 33.2037 0
rclavicle -3.04712e-14 -4.0819e-15 0
rhumerus -49.1592 -28.533 -48.1962
rradius 73.3731 0 0
rwrist -23.0166 0 0
rhand -46.2286 -53.2292 0
rfingers 7.12502 0 0
rthumb -18.9655 -802.096 0
886
root 3.83788 16.5215 30.6016 -10.2745 23.5132 359.428
lfemur -16.349 20.2589 -18.8494
ltibia 41.004 0 0
lfoot -13.0555 -0.024416 0
ltoes -0.712626 0 0
rfemur -77.6608 -23.7305 34.3698
rtibia 99.6721 0 0
rfoot 18.4365 23.4864 0
rtoes -5.54776 0 0
lowerback 14.3807 -3.89466 -6.46475
upperback 4.72088 -6.08724 -2.37888
thorax -2.58717 -3.01472 2.11362
lowerneck -7.67629 -3.43209 1.5179
upperneck 4.64425 -5.07251 4.94663
head 2.93946 -2.30858 1.08982
lclavicle -2.9605e-14 -3.27328e-15 0
lhumerus -34.0602 -40.3614 89.5434
lradius 60.5996 0 0
lwrist 19.2915 0 0
lhand 26.0567 12.1468 0
lfingers 7.12502 0 0
lthumb 50.1279 33.2899 0
rclavicle -2.9605e-14 -3.27328e-15 0
rhumerus -49.046 -27.1935 -49.6597
rradius 74.6335 0 0
rwrist -22.6043 0 0
rhand -44.4255 -51.7524 0
rfingers 7.12502 0 0
rthumb -17.2321 -800.529 0
887
root 3.82782 16.515 30.6519 -9.88102 23.3962 359.484
lfemur -16.7349 20.4453 -18.7334
ltibia 41.3708 0 0
lfoot -13.1434 -0.0912922 0
ltoes -0.235345 0 0
rfemur -75.4771 -23.2181 32.8338
rtibia 98.632 0 0
rfoot 17.8445 21.5415 0
rtoes -3.69075 0 0
lowerback 13.9334 -3.81065 -6.33373
upperback 4.53948 -5.9448 -2.37784
thorax -2.54725 -2.94381 2.00772
lowerneck -7.64594 -3.56582 1.3759
upperneck 4.63342 -5.23696 4.95056
head 2.94103 -2.39342 1.10776
lclavicle -2.84573e-14 -2.20193e-15 0
lhumerus -34.7963 -40.232 90.4014
lradius 60.601 0 0
lwrist 19.0352 0 0
lhand 26.2155 12.3456 0
lfingers 7.12502 0 0
lthumb 50.2721 33.4042 0
rclavicle -2.84573e-14 -2.20193e-15 0
rhumerus -48.896 -25.4188 -51.5987
rradius 76.3034 0 0
rwrist -22.0581 0 0
rhand -42.0365 -49.7957 0
rfingers 7.12502 0 0
rthumb -14.9354 -798.453 0
888
root 3.81562 16.5072 30.713 -9.40387 23.2543 359.551
lfemur -17.2029 20.6713 -18.5927
ltibia 41.8155 0 0
lfoot -13.25 -0.172382 0
ltoes 0.343375 0 0
rfemur -72.8293 -22.5968 30.9714
rtibia 97.3708 0 0
rfoot 17.1267 19.1833 0
rtoes -1.43906 0 0
lowerback 13.3911 -3.70878 -6.17486
upperback 4.31953 -5.77207 -2.37658
thorax -2.49885 -2.85783 1.87931
lowerneck -7.60915 -3.72797 1.20372
upperneck 4.62028 -5.43637 4.95532
head 2.94294 -2.4963 1.12951
lclavicle -2.70657e-14 -9.02887e-16 0
lhumerus -35.6889 -40.0752 91.4418
lradius 60.6027 0 0
lwrist 18.7245 0 0
lhand 26.408 12.5866 0
lfingers 7.12502 0 0
lthumb 50.4469 33.5428 0
rclavicle -2.70657e-14 -9.02887e-16 0
rhumerus -48.7142 -23.2669 -53.9499
rradius 78.3283 0 0
rwrist -21.3958 0 0
rhand -39.1397 -47.4232 0
rfingers 7.12502 0 0
rthumb -12.1506 -795.936 0
889
root 3.8016 16.4981 30.7831 -8.85594 23.0913 359.629
lfemur -17.7403 20.9308 -18.4311
ltibia 42.3262 0 0
lfoot -13.3724 -0.265498 0
ltoes 1.00793 0 0
rfemur -69.7887 -21.8833 28.8327
rtibia 95.9226 0 0
rfoot 16.3024 16.4753 0
rtoes 1.14658 0 0
lowerback 12.7683 -3.59181 -5.99243
upperback 4.06696 -5.57373 -2.37513
thorax -2.44328 -2.75909 1.73185
lowerneck -7.56689 -3.91416 1.00601
upperneck 4.6052 -5.66534 4.96079
head 2.94513 -2.61443 1.15449
lclavicle -2.54678e-14 5.88825e-16 0
lhumerus -36.7138 -39.895 92.6364
lradius 60.6046 0 0
lwrist 18.3677 0 0
lhand 26.6291 12.8634 0
lfingers 7.12502 0 0
lthumb 50.6477 33.7019 0
rclavicle -2.54678e-14 5.88825e-16 0
rhumerus -48.5054 -20.7958 -56.6497
rradius 80.6534 0 0
rwrist -20.6352 0 0
rhand -35.8133 -44.6989 0
rfingers 7.12502 0 0
rthumb -8.95276 -793.045 0
890
root 3.78611 16.4882 30.8606 -8.25012 22.9112 359.714
lfemur -18.3345 21.2178 -18.2525
ltibia 42.8909 0 0
lfoot -13.5078 -0.368455 0
ltoes 1.74271 0 0
rfemur -66.4269 -21.0945 26.4681
rtibia 94.3214 0 0
rfoot 15.391 13.4811 0
rtoes 4.00547 0 0
lowerback 12.0797 -3.46247 -5.79073
upperback 3.78769 -5.35443 -2.37353
thorax -2.38183 -2.64993 1.56881
lowerneck -7.52017 -4.12004 0.78741
upperneck 4.58852 -5.91852 4.96684
head 2.94756 -2.74505 1.1821
lclavicle -2.37009e-14 2.23817e-15 0
lhumerus -37.8471 -39.6958 93.9573
lradius 60.6067 0 0
lwrist 17.9732 0 0
lhand 26.8736 13.1695 0
lfingers 7.12502 0 0
lthumb 50.8696 33.8778 0
rclavicle -2.37009e-14 2.23817e-15 0
rhumerus -48.2745 -18.0636 -59.6349
rradius 83.2243 0 0
rwrist -19.7943 0 0
rhand -32.1354 -41.6866 0
rfingers 7.12502 0 0
rthumb -5.417 -789.849 0
891
root 3.76946 16.4775 30.9439 -7.59926 22.7176 359.806
lfemur -18.9728 21.5261 -18.0606
ltibia 43.4975 0 0
lfoot -13.6532 -0.479064 0
ltoes 2.53211 0 0
rfemur -62.8152 -20.247 23.9276
rtibia 92.6011 0 0
rfoot 14.4119 10.2644 0
rtoes 7.07688 0 0
lowerback 11.34 -3.32352 -5.57403
upperback 3.48767 -5.11883 -2.3718
thorax -2.31581 -2.53264 1.39366
lowerneck -7.46998 -4.34121 0.552556
upperneck 4.57061 -6.19051 4.97333
head 2.95016 -2.88537 1.21178
lclavicle -2.18028e-14 4.01013e-15 0
lhumerus -39.0646 -39.4818 95.3764
lradius 60.609 0 0
lwrist 17.5494 0 0
lhand 27.1362 13.4983 0
lfingers 7.12502 0 0
lthumb 51.1081 34.0668 0
rclavicle -2.18028e-14 4.01013e-15 0
rhumerus -48.0265 -15.1283 -62.8419
rradius 85.9863 0 0
rwrist -18.8909 0 0
rhand -28.1841 -38.4504 0
rfingers 7.12502 0 0
rthumb -1.61841 -786.415 0
892
root 3.75199 16.4663 31.0313 -6.91624 22.5145 359.903
lfemur -19.6427 21.8496 -17.8592
ltibia 44.1341 0 0
lfoot -13.8058 -0.595141 0
ltoes 3.36052 0 0
rfemur -59.0249 -19.3576 21.2616
rtibia 90.7958 0 0
rfoot 13.3844 6.88863 0
rtoes 10.3001 0 0
lowerback 10.5636 -3.1777 -5.34662
upperback 3.17282 -4.87159 -2.37
thorax -2.24653 -2.40957 1.20984
lowerneck -7.41731 -4.57332 0.306094
upperneck 4.55181 -6.47595 4.98015
head 2.95289 -3.03264 1.24291
lclavicle -1.98108e-14 5.86966e-15 0
lhumerus -40.3423 -39.2572 96.8656
lradius 60.6114 0 0
lwrist 17.1046 0 0
lhand 27.4118 13.8434 0
lfingers 7.12502 0 0
lthumb 51.3583 34.2651 0
rclavicle -1.98108e-14 5.86966e-15 0
rhumerus -47.7662 -12.048 -66.2075
rradius 88.8848 0 0
rwrist -17.9429 0 0
rhand -24.0375 -35.0543 0
rfingers 7.12502 0 0
rthumb 2.36792 -782.812 0
893
root 3.73403 16.4547 31.1212 -6.21391 22.3056 360.002
lfemur -20.3315 22.1823 -17.6521
ltibia 44.7887 0 0
lfoot -13.9627 -0.714498 0
ltoes 4.21235 0 0
rfemur -55.1276 -18.4431 18.5203
rtibia 88.9395 0 0
rfoot 12.3278 3.41751 0
rtoes 13.6144 0 0
lowerback 9.76538 -3.02777 -5.11278
upperback 2.84907 -4.61736 -2.36814
thorax -2.17529 -2.28301 1.02083
lowerneck -7.36314 -4.81198 0.0526686
upperneck 4.53247 -6.76945 4.98716
head 2.9557 -3.18406 1.27493
lclavicle -1.77625e-14 7.78174e-15 0
lhumerus -41.6561 -39.0263 98.3969
lradius 60.6139 0 0
lwrist 16.6473 0 0
lhand 27.6952 14.1982 0
lfingers 7.12502 0 0
lthumb 51.6157 34.469 0
rclavicle -1.77625e-14 7.78174e-15 0
rhumerus -47.4986 -8.88056 -69.6682
rradius 91.8652 0 0
rwrist -16.968 0 0
rhand -19.7737 -31.5622 0
rfingers 7.12502 0 0
rthumb 6.46689 -779.107 0
894
root 3.71591 16.4431 31.2118 -5.50516 22.0949 360.103
lfemur -21.0267 22.518 -17.4431
ltibia 45.4494 0 0
lfoot -14.1211 -0.834948 0
ltoes 5.07197 0 0
rfemur -51.1945 -17.5203 15.7539
rtibia 87.0661 0 0
rfoot 11.2615 -0.0854073 0
rtoes 16.959 0 0
lowerback 8.9598 -2.87645 -4.8768
upperback 2.52236 -4.36079 -2.36626
thorax -2.10341 -2.15529 0.830094
lowerneck -7.30849 -5.05284 -0.203079
upperneck 4.51297 -7.06564 4.99424
head 2.95853 -3.33687 1.30724
lclavicle -1.56955e-14 9.71133e-15 0
lhumerus -42.982 -38.7932 99.9422
lradius 60.6163 0 0
lwrist 16.1857 0 0
lhand 27.9813 14.5562 0
lfingers 7.12502 0 0
lthumb 51.8753 34.6749 0
rclavicle -1.56955e-14 9.71133e-15 0
rhumerus -47.2285 -5.68414 -73.1605
rradius 94.873 0 0
rwrist -15.9843 0 0
rhand -15.4709 -28.0381 0
rfingers 7.12502 0 0
rthumb 10.6034 -775.367 0
895
root 3.69795 16.4315 31.3017 -4.80283 21.886 360.202
lfemur -21.7155 22.8507 -17.236
ltibia 46.104 0 0
lfoot -14.278 -0.954304 0
ltoes 5.9238 0 0
rfemur -47.2972 -16.6058 13.0125
rtibia 85.2098 0 0
rfoot 10.205 -3.55653 0
rtoes 20.2733 0 0
lowerback 8.16154 -2.72652 -4.64296
upperback 2.19861 -4.10656 -2.3644
thorax -2.03217 -2.02873 0.641086
lowerneck -7.25432 -5.2915 -0.456504
upperneck 4.49363 -7.35914 5.00125
head 2.96134 -3.48829 1.33926
lclavicle -1.36472e-14 1.16234e-14 0
lhumerus -44.2958 -38.5623 101.474
lradius 60.6188 0 0
lwrist 15.7284 0 0
lhand 28.2647 14.911 0
lfingers 7.12502 0 0
lthumb 52.1327 34.8788 0
rclavicle -1.36472e-14 1.16234e-14 0
rhumerus -46.9609 -2.51674 -76.6212
rradius 97.8534 0 0
rwrist -15.0094 0 0
rhand -11.2071 -24.546 0
rfingers 7.12502 0 0
rthumb 14.7024 -771.662 0
